# xmcd
#
# Track frame offsets:
#	150
#	12345
#	24942
#	41504
#	54842
#	68370
#	79337
#	94885
#	108522
#	122612
#	136305
#	146780
#
# Disc length: 2112 seconds
#
# Revision: 0
# Processed by: cddbd v1.5.1PL2 Copyright (c) Steve Scherf et al.
# Submitted via: dBpowerAMP V4.0
#
DISCID=97083e0c
DTITLE=GLENN MILLER - THE TRIBUTE
DYEAR=1900
DGENRE=
TTITLE0=01- Tuxedo Junction
TTITLE1=Moonlight Serenade
TTITLE2=In the Mood
TTITLE3=Little Brown Jug
TTITLE4=Chattanooga Choo Choo
TTITLE5=A String of Pearls
TTITLE6=St Louis Blues
TTITLE7=Beautiful Dreamer
TTITLE8=Pensilvanua 6-5000
TTITLE9=Aamerican Patrol
TTITLE10=Palm Beach Hotel
TTITLE11=Lomdonderry Air
EXTD=
EXTT0=
EXTT1=
EXTT2=
EXTT3=
EXTT4=
EXTT5=
EXTT6=
EXTT7=
EXTT8=
EXTT9=
EXTT10=
EXTT11=
PLAYORDER=
